<?xml version="1.0" encoding="UTF-8"?>
<svg id="Layer_1" data-name="Layer 1" xmlns="http://www.w3.org/2000/svg" viewBox="0 0 3464 3464">
  <defs>
    <style>
      .cls-1 {
        fill: #2d2d2d;
      }

      .cls-1, .cls-2 {
        stroke-width: 0px;
      }

      .cls-2 {
        fill: #329e36;
      }
    </style>
  </defs>
  <path class="cls-1" d="M1717.25,1292.91c-5.55,8.34-9.65,14.33-13.59,20.43-130.7,202-261.51,403.93-391.78,606.2-7.96,12.36-16.37,16.73-30.82,16.61-78.78-.68-157.58-.32-236.37-.32h-20.87c3.45-6.6,5.53-11.39,8.29-15.74,151.07-238.27,301.95-476.65,457.67-711.93,72.46-109.48,143.94-219.61,215.89-329.44,3.32-5.06,6.81-10.01,12.08-17.74,381.08,580.48,760.91,1159.36,1142.2,1740.63-8.73.5-13.98,1.06-19.23,1.06-84.9.05-169.8-.27-254.7.36-12.83.1-19.62-4.68-26.24-14.86-131.99-202.62-264.66-404.8-396.44-607.56-145.76-224.25-290.77-448.99-436.13-673.5-2.61-4.02-5.5-7.86-9.97-14.2Z"/>
  <path class="cls-2" d="M604.04,2600.15c2.54-5.29,3.96-9.17,6.12-12.57,44.14-69.63,88.68-139.02,132.28-208.98,7.45-11.95,16.51-13.83,28.9-13.81,158.21.25,316.43.17,474.65.17,131.34,0,262.67,0,394.01,0h23.89c-3.81,7.38-5.64,11.71-8.12,15.63-43.8,69.12-87.87,138.07-131.33,207.41-6.31,10.07-13.36,13.73-25.17,13.72-293.22-.3-586.43-.23-879.65-.28-4.63,0-9.27-.74-15.58-1.27Z"/>
</svg>